# Blender v3.2.0 OBJ File: ''
# www.blender.org
o Plane
v -0.000340 0.003610 0.600000
v 0.000340 0.003610 -0.600000
v -0.000340 1.203610 0.600000
v 0.000340 1.203610 -0.600000
v 0.599999 0.003610 0.000340
v -0.600000 0.003611 -0.000340
v 0.599999 1.203610 0.000340
v -0.600000 1.203610 -0.000340
vt 0.000100 0.000100
vt 0.999900 0.000100
vt 0.000100 0.999900
vt 0.000100 0.000100
vt 0.999900 0.000100
vt 0.999900 0.999900
vt 0.999900 0.999900
vt 0.000100 0.999900
vn -1.0000 0.0000 -0.0006
vn -0.0006 -0.0000 1.0000
s off
f 2/1/1 1/2/1 4/3/1
f 6/4/2 5/5/2 7/6/2
f 1/2/1 3/7/1 4/3/1
f 8/8/2 6/4/2 7/6/2
